<?xml version="1.0" encoding="UTF-8"?>
<svg width="700pt" height="700pt" version="1.1" viewBox="0 0 700 700" xmlns="http://www.w3.org/2000/svg">
 <path d="m98.051 486.05c-3.8672 2.3281-5.4062 6.9648 0.75391 13.141h0.015624c10.922 10.922 25.727 17.062 41.176 17.062 12.703 0 24.973-4.1484 35-11.691 10.027 7.543 22.297 11.691 35 11.691s24.973-4.1484 35-11.691c10.027 7.543 22.297 11.691 35 11.691s24.973-4.1484 35-11.691c10.027 7.543 22.297 11.691 35 11.691s24.973-4.1484 35-11.691c10.027 7.543 22.297 11.691 35 11.691s24.973-4.1484 35-11.691c10.027 7.543 22.297 11.691 35 11.691s24.973-4.1484 35-11.691c10.027 7.543 22.297 11.691 35 11.691 15.453 0 30.258-6.1406 41.176-17.062h0.015625c3.4141-3.4141 3.4141-8.9609 0-12.371-3.4297-3.4141-8.9609-3.4141-12.391 0-7.6289 7.6484-18.008 11.934-28.805 11.934-10.797 0-21.176-4.2891-28.805-11.934 0.42188 0.42188 0.85938 1.0156 0.85938 1.0156s-4.3398-3.5859-7.0508-3.5859c-2.7109 0-7.0508 3.5859-7.0508 3.5859s0.4375-0.59375 0.85938-1.0156c-7.6289 7.6484-18.008 11.934-28.805 11.934s-21.176-4.2891-28.805-11.934c0.42188 0.42188 0.85938 1.0156 0.85938 1.0156s-4.3398-3.5859-7.0508-3.5859c-2.7109 0-7.0508 3.5859-7.0508 3.5859s0.4375-0.59375 0.85938-1.0156c-7.6289 7.6484-18.008 11.934-28.805 11.934-10.797 0-21.176-4.2891-28.805-11.934 0.42188 0.42188 0.85938 1.0156 0.85938 1.0156s-4.3398-3.5859-7.0508-3.5859c-2.7109 0-7.0508 3.5859-7.0508 3.5859s0.4375-0.59375 0.85937-1.0156c-7.6289 7.6484-18.008 11.934-28.805 11.934s-21.176-4.2891-28.805-11.934c0.42187 0.42188 0.85937 1.0156 0.85937 1.0156s-4.3398-3.5859-7.0508-3.5859c-2.7109 0-7.0508 3.5859-7.0508 3.5859s0.4375-0.59375 0.85938-1.0156c-7.6289 7.6484-18.008 11.934-28.805 11.934-10.797 0-21.176-4.2891-28.805-11.934 0.42188 0.42188 0.85938 1.0156 0.85938 1.0156s-4.3398-3.5859-7.0508-3.5859c-2.7109 0-7.0508 3.5859-7.0508 3.5859s0.4375-0.59375 0.85938-1.0156c-7.6289 7.6484-18.008 11.934-28.805 11.934s-21.176-4.2891-28.805-11.934c0.42188 0.42188 0.85938 1.0156 0.85938 1.0156s-4.3398-3.5859-7.0508-3.5859c-2.7109 0-7.0508 3.5859-7.0508 3.5859s0.4375-0.59375 0.85938-1.0156c-7.6289 7.6484-18.008 11.934-28.805 11.934-10.797 0-21.176-4.2891-28.805-11.934h-0.015625c-6.1602-6.1758-10.797-4.6211-13.125-0.76953zm0-70c-3.8672 2.3281-5.4062 6.9648 0.75391 13.141h0.015624c10.922 10.922 25.727 17.062 41.176 17.062 12.703 0 24.973-4.1484 35-11.691 10.027 7.543 22.297 11.691 35 11.691s24.973-4.1484 35-11.691c10.027 7.543 22.297 11.691 35 11.691s24.973-4.1484 35-11.691c10.027 7.543 22.297 11.691 35 11.691s24.973-4.1484 35-11.691c10.027 7.543 22.297 11.691 35 11.691s24.973-4.1484 35-11.691c10.027 7.543 22.297 11.691 35 11.691s24.973-4.1484 35-11.691c10.027 7.543 22.297 11.691 35 11.691 15.453 0 30.258-6.1406 41.176-17.062h0.015625c3.4141-3.4141 3.4141-8.9609 0-12.371-3.4297-3.4141-8.9609-3.4141-12.391 0-7.6289 7.6484-18.008 11.934-28.805 11.934-10.797 0-21.176-4.2891-28.805-11.934 0.42188 0.42188 0.85938 1.0156 0.85938 1.0156s-4.3398-3.5859-7.0508-3.5859c-2.7109 0-7.0508 3.5859-7.0508 3.5859s0.4375-0.59375 0.85938-1.0156c-7.6289 7.6484-18.008 11.934-28.805 11.934s-21.176-4.2891-28.805-11.934c0.42188 0.42188 0.85938 1.0156 0.85938 1.0156s-4.3398-3.5859-7.0508-3.5859c-2.7109 0-7.0508 3.5859-7.0508 3.5859s0.4375-0.59375 0.85938-1.0156c-7.6289 7.6484-18.008 11.934-28.805 11.934-10.797 0-21.176-4.2891-28.805-11.934 0.42188 0.42188 0.85938 1.0156 0.85938 1.0156s-4.3398-3.5859-7.0508-3.5859c-2.7109 0-7.0508 3.5859-7.0508 3.5859s0.4375-0.59375 0.85937-1.0156c-7.6289 7.6484-18.008 11.934-28.805 11.934s-21.176-4.2891-28.805-11.934c0.42187 0.42188 0.85937 1.0156 0.85937 1.0156s-4.3398-3.5859-7.0508-3.5859c-2.7109 0-7.0508 3.5859-7.0508 3.5859s0.4375-0.59375 0.85938-1.0156c-7.6289 7.6484-18.008 11.934-28.805 11.934-10.797 0-21.176-4.2891-28.805-11.934 0.42188 0.42188 0.85938 1.0156 0.85938 1.0156s-4.3398-3.5859-7.0508-3.5859c-2.7109 0-7.0508 3.5859-7.0508 3.5859s0.4375-0.59375 0.85938-1.0156c-7.6289 7.6484-18.008 11.934-28.805 11.934s-21.176-4.2891-28.805-11.934c0.42188 0.42188 0.85938 1.0156 0.85938 1.0156s-4.3398-3.5859-7.0508-3.5859c-2.7109 0-7.0508 3.5859-7.0508 3.5859s0.4375-0.59375 0.85938-1.0156c-7.6289 7.6484-18.008 11.934-28.805 11.934-10.797 0-21.176-4.2891-28.805-11.934h-0.015625c-6.1602-6.1758-10.797-4.6211-13.125-0.76953zm0-72.992c-3.8672 2.3281-5.4062 6.9648 0.75391 13.125l0.015624 0.015624c10.922 10.922 25.727 17.062 41.176 17.062 12.703 0 24.973-4.1484 35-11.707 10.027 7.5586 22.297 11.707 35 11.707s24.973-4.1484 35-11.707c10.027 7.5586 22.297 11.707 35 11.707s24.973-4.1484 35-11.707c10.027 7.5586 22.297 11.707 35 11.707s24.973-4.1484 35-11.707c10.027 7.5586 22.297 11.707 35 11.707s24.973-4.1484 35-11.707c10.027 7.5586 22.297 11.707 35 11.707s24.973-4.1484 35-11.707c10.027 7.5586 22.297 11.707 35 11.707 15.453 0 30.258-6.1406 41.176-17.062h0.015625c3.4141-3.4297 3.4141-8.9609 0-12.391-3.4297-3.4141-8.9609-3.4141-12.391 0v0.015624c-7.6289 7.6289-18.008 11.934-28.805 11.934-10.797 0-21.176-4.3047-28.805-11.934 0.42188 0.42188 0.85938 0.99609 0.85938 0.99609s-4.3398-3.5703-7.0508-3.5703c-2.7109 0-7.0508 3.5703-7.0508 3.5703s0.4375-0.57812 0.85938-0.99609c-7.6289 7.6289-18.008 11.934-28.805 11.934s-21.176-4.3047-28.805-11.934c0.42188 0.42188 0.85938 0.99609 0.85938 0.99609s-4.3398-3.5703-7.0508-3.5703c-2.7109 0-7.0508 3.5703-7.0508 3.5703s0.4375-0.57812 0.85938-0.99609c-7.6289 7.6289-18.008 11.934-28.805 11.934-10.797 0-21.176-4.3047-28.805-11.934 0.42188 0.42188 0.85938 0.99609 0.85938 0.99609s-4.3398-3.5703-7.0508-3.5703c-2.7109 0-7.0508 3.5703-7.0508 3.5703s0.4375-0.57812 0.85937-0.99609c-7.6289 7.6289-18.008 11.934-28.805 11.934s-21.176-4.3047-28.805-11.934c0.42187 0.42188 0.85937 0.99609 0.85937 0.99609s-4.3398-3.5703-7.0508-3.5703c-2.7109 0-7.0508 3.5703-7.0508 3.5703s0.4375-0.57812 0.85938-0.99609c-7.6289 7.6289-18.008 11.934-28.805 11.934-10.797 0-21.176-4.3047-28.805-11.934 0.42188 0.42188 0.85938 0.99609 0.85938 0.99609s-4.3398-3.5703-7.0508-3.5703c-2.7109 0-7.0508 3.5703-7.0508 3.5703s0.4375-0.57812 0.85938-0.99609c-7.6289 7.6289-18.008 11.934-28.805 11.934s-21.176-4.3047-28.805-11.934c0.42188 0.42188 0.85938 0.99609 0.85938 0.99609s-4.3398-3.5703-7.0508-3.5703c-2.7109 0-7.0508 3.5703-7.0508 3.5703s0.4375-0.57812 0.85938-0.99609c-7.6289 7.6289-18.008 11.934-28.805 11.934-10.797 0-21.176-4.3047-28.805-11.934l-0.015625-0.015624c-6.1602-6.1602-10.797-4.6211-13.125-0.75391zm6.9492-39.551h490c4.8281 0 8.75-3.9219 8.75-8.75s-3.9219-8.75-8.75-8.75h-490c-4.8281 0-8.75 3.9219-8.75 8.75s3.9219 8.75 8.75 8.75zm323.19-131.67v75.582c0 4.8281 3.9219 8.75 8.75 8.75h112.45c4.8281 0 8.75-3.9219 8.75-8.75v-75.582h19.355c3.5352 0 6.7383-2.1367 8.0859-5.4062 1.3477-3.2734 0.61328-7.0352-1.8906-9.5391l-84.332-84.332c-3.4297-3.4141-8.9609-3.4141-12.371 0l-84.332 84.332c-2.5039 2.5039-3.2539 6.2656-1.9062 9.5391 1.3633 3.2734 4.5508 5.4062 8.0859 5.4062h19.355zm-77.91 19.25v53.918c0 4.8281 3.9219 8.75 8.75 8.75s8.75-3.9219 8.75-8.75v-53.918c7-2.293 13.527-7.3516 18.988-14.859 9.5391-13.125 16.012-34.23 16.012-58.102s-6.4766-44.977-16.012-58.102c-7.6836-10.57-17.484-16.273-27.738-16.273s-20.055 5.7031-27.738 16.273c-9.5547 13.125-16.012 34.23-16.012 58.102s6.457 44.977 16.012 58.102c5.4609 7.5078 11.988 12.566 18.988 14.859zm-201.53 0v53.918c0 4.8281 3.9219 8.75 8.75 8.75s8.75-3.9219 8.75-8.75v-53.918c7-2.293 13.527-7.3516 18.988-14.859 9.5547-13.125 16.012-34.23 16.012-58.102s-6.457-44.977-16.012-58.102c-7.6836-10.57-17.484-16.273-27.738-16.273s-20.055 5.7031-27.738 16.273c-9.5547 13.125-16.012 34.23-16.012 58.102s6.457 44.977 16.012 58.102c5.4609 7.5078 11.988 12.566 18.988 14.859zm105 0v53.918c0 4.8281 3.9219 8.75 8.75 8.75s8.75-3.9219 8.75-8.75v-53.918c7-2.293 13.527-7.3516 18.988-14.859 9.5547-13.125 16.012-34.23 16.012-58.102s-6.457-44.977-16.012-58.102c-7.6836-10.57-17.484-16.273-27.738-16.273s-20.055 5.7031-27.738 16.273c-9.5547 13.125-16.012 34.23-16.012 58.102s6.457 44.977 16.012 58.102c5.4609 7.5078 11.988 12.566 18.988 14.859zm191.94-19.25h94.953v66.832h-94.953zm-288.19-110.58c5.2148 0 9.6758 3.6914 13.598 9.0664 7.8242 10.762 12.652 28.227 12.652 47.809s-4.8281 37.047-12.652 47.809c-3.9219 5.3711-8.3828 9.0664-13.598 9.0664s-9.6758-3.6914-13.598-9.0664c-7.8242-10.762-12.652-28.227-12.652-47.809s4.8281-37.047 12.652-47.809c3.9219-5.3711 8.3828-9.0664 13.598-9.0664zm105 0c5.2148 0 9.6758 3.6914 13.598 9.0664 7.8242 10.762 12.652 28.227 12.652 47.809s-4.8281 37.047-12.652 47.809c-3.9219 5.3711-8.3828 9.0664-13.598 9.0664s-9.6758-3.6914-13.598-9.0664c-7.8242-10.762-12.652-28.227-12.652-47.809s4.8281-37.047 12.652-47.809c3.9219-5.3711 8.3828-9.0664 13.598-9.0664zm96.531 0c5.1992 0 9.6758 3.6914 13.578 9.0664 7.8398 10.762 12.672 28.227 12.672 47.809s-4.8281 37.047-12.672 47.809c-3.9023 5.3711-8.3828 9.0664-13.578 9.0664-5.2148 0-9.6953-3.6914-13.598-9.0664-7.8242-10.762-12.652-28.227-12.652-47.809s4.8281-37.047 12.652-47.809c3.9023-5.3711 8.3828-9.0664 13.598-9.0664zm190.4 93.082h6.9492l-63.211-63.211-63.211 63.211z" fill-rule="evenodd"/>
</svg>
